<?xml version="1.0" encoding="UTF-8" standalone="no"?>
<svg
   xmlns:dc="http://purl.org/dc/elements/1.1/"
   xmlns:cc="http://creativecommons.org/ns#"
   xmlns:rdf="http://www.w3.org/1999/02/22-rdf-syntax-ns#"
   xmlns:svg="http://www.w3.org/2000/svg"
   xmlns="http://www.w3.org/2000/svg"
   xmlns:sodipodi="http://sodipodi.sourceforge.net/DTD/sodipodi-0.dtd"
   xmlns:inkscape="http://www.inkscape.org/namespaces/inkscape"
   version="1.0"
   width="20.000000pt"
   height="110.000000pt"
   viewBox="0 0 20.000000 110.000000"
   preserveAspectRatio="xMidYMid meet"
   id="svg6"
   sodipodi:docname="gullbrace-left.svg"
   inkscape:version="1.0.1 (3bc2e813f5, 2020-09-07)">
  <metadata
     id="metadata12">
    <rdf:RDF>
      <cc:Work
         rdf:about="">
        <dc:format>image/svg+xml</dc:format>
        <dc:type
           rdf:resource="http://purl.org/dc/dcmitype/StillImage" />
        <dc:title></dc:title>
      </cc:Work>
    </rdf:RDF>
  </metadata>
  <defs
     id="defs10" />
  <sodipodi:namedview
     pagecolor="#ffffff"
     bordercolor="#666666"
     borderopacity="1"
     objecttolerance="10"
     gridtolerance="10"
     guidetolerance="10"
     inkscape:pageopacity="0"
     inkscape:pageshadow="2"
     inkscape:window-width="1920"
     inkscape:window-height="1080"
     id="namedview8"
     showgrid="false"
     inkscape:zoom="3.9068182"
     inkscape:cx="-33.379872"
     inkscape:cy="73.333333"
     inkscape:window-x="1366"
     inkscape:window-y="0"
     inkscape:window-maximized="0"
     inkscape:current-layer="svg6" />
  <g
     transform="matrix(-0.1,0,0,-0.1,23.575,110)"
     fill="#000000"
     stroke="none"
     id="g4">
    <path
       d="m 81,1045 c 0,-5 6,-19 14,-29 12,-16 15,-61 15,-230 0,-178 2,-212 16,-227 15,-16 15,-20 0,-41 C 113,499 110,463 110,295 110,125 108,91 93,71 81,53 80,48 91,52 c 33,11 39,51 39,254 0,166 3,204 15,214 13,11 13,15 0,33 -12,17 -15,62 -15,234 0,211 0,212 -25,240 -13,15 -24,24 -24,18 z"
       id="path2" />
  </g>
</svg>
