<svg version="1.0" xmlns="http://www.w3.org/2000/svg"
 width="512.000000pt" height="512.000000pt" viewBox="0 0 512.000000 512.000000"
 preserveAspectRatio="xMidYMid meet">

<g transform="translate(0.000000,512.000000) scale(0.100000,-0.100000)"
fill="green" stroke="none">
<path d="M2365 5114 c-382 -39 -667 -121 -975 -281 -237 -122 -439 -271 -635
-468 -469 -468 -727 -1058 -752 -1715 -10 -288 32 -577 128 -865 74 -222 103
-263 190 -272 83 -8 159 58 159 139 0 22 -24 112 -54 201 -136 404 -160 750
-80 1152 194 978 1022 1717 2024 1806 466 41 937 -73 1377 -334 l103 -60 -51
-17 c-64 -22 -94 -51 -109 -106 -11 -38 -10 -51 4 -89 10 -25 31 -54 47 -66
46 -33 675 -239 729 -239 77 0 131 46 144 123 10 55 -211 721 -252 759 -39 36
-65 48 -109 48 -102 0 -172 -113 -133 -215 12 -33 17 -35 -110 51 -332 225
-701 369 -1100 429 -100 15 -460 28 -545 19z"/>


<path d="M4720 3592 c-47 -23 -80 -75 -80 -124 0 -22 25 -112 54 -201 95 -281
133 -528 122 -792 -13 -327 -83 -607 -226 -901 -222 -458 -585 -820 -1045
-1045 -216 -105 -408 -165 -660 -205 -135 -22 -488 -25 -610 -6 -343 56 -610
152 -902 325 l-103 60 50 17 c63 21 85 41 105 95 21 54 7 116 -36 156 -38 35
-670 249 -737 249 -77 0 -135 -47 -147 -120 -6 -33 11 -91 109 -387 64 -191
122 -355 129 -364 22 -29 81 -59 117 -59 107 0 180 111 140 215 -12 33 -17 35
110 -51 337 -226 705 -370 1105 -430 168 -26 532 -26 700 0 555 84 1049 331
1441 721 218 217 371 429 499 690 92 187 136 307 185 499 125 494 102 974 -71
1459 -22 65 -51 132 -63 150 -25 37 -78 67 -121 67 -16 0 -46 -8 -65 -18z"/>
</g>
</svg>
